<mxfile host="app.diagrams.net" agent="Mozilla/5.0 (Macintosh; Intel Mac OS X 10_15_7) AppleWebKit/537.36 (KHTML, like Gecko) Chrome/136.0.0.0 Safari/537.36" version="27.1.1">
  <diagram name="PÃ¡gina-1" id="wgiNnoptPJWkFFCyTvsE">
    <mxGraphModel dx="834" dy="1371" grid="1" gridSize="10" guides="1" tooltips="1" connect="1" arrows="1" fold="1" page="1" pageScale="1" pageWidth="1169" pageHeight="827" math="0" shadow="0">
      <root>
        <mxCell id="0" />
        <mxCell id="1" parent="0" />
        <mxCell id="TGyVZRft1nJL-iwEU8iF-6" style="edgeStyle=orthogonalEdgeStyle;rounded=0;orthogonalLoop=1;jettySize=auto;html=1;exitX=1;exitY=0.25;exitDx=0;exitDy=0;entryX=0.5;entryY=0;entryDx=0;entryDy=0;" edge="1" parent="1" source="TGyVZRft1nJL-iwEU8iF-1" target="TGyVZRft1nJL-iwEU8iF-3">
          <mxGeometry relative="1" as="geometry" />
        </mxCell>
        <mxCell id="TGyVZRft1nJL-iwEU8iF-1" value="User API" style="image;html=1;image=img/lib/clip_art/computers/Server_Tower_128x128.png" vertex="1" parent="1">
          <mxGeometry x="730" y="180" width="80" height="80" as="geometry" />
        </mxCell>
        <mxCell id="TGyVZRft1nJL-iwEU8iF-5" style="edgeStyle=orthogonalEdgeStyle;rounded=0;orthogonalLoop=1;jettySize=auto;html=1;exitX=0.5;exitY=0;exitDx=0;exitDy=0;entryX=0;entryY=0.5;entryDx=0;entryDy=0;" edge="1" parent="1" source="TGyVZRft1nJL-iwEU8iF-2" target="TGyVZRft1nJL-iwEU8iF-4">
          <mxGeometry relative="1" as="geometry" />
        </mxCell>
        <mxCell id="TGyVZRft1nJL-iwEU8iF-21" style="edgeStyle=orthogonalEdgeStyle;rounded=0;orthogonalLoop=1;jettySize=auto;html=1;exitX=1;exitY=0.5;exitDx=0;exitDy=0;" edge="1" parent="1" source="TGyVZRft1nJL-iwEU8iF-2" target="TGyVZRft1nJL-iwEU8iF-1">
          <mxGeometry relative="1" as="geometry" />
        </mxCell>
        <mxCell id="TGyVZRft1nJL-iwEU8iF-47" style="edgeStyle=orthogonalEdgeStyle;rounded=0;orthogonalLoop=1;jettySize=auto;html=1;exitX=1;exitY=0.75;exitDx=0;exitDy=0;entryX=0.5;entryY=0;entryDx=0;entryDy=0;" edge="1" parent="1" source="TGyVZRft1nJL-iwEU8iF-2" target="TGyVZRft1nJL-iwEU8iF-45">
          <mxGeometry relative="1" as="geometry" />
        </mxCell>
        <mxCell id="TGyVZRft1nJL-iwEU8iF-2" value="Product API&lt;br&gt;Vamos criar" style="image;html=1;image=img/lib/clip_art/computers/Server_Tower_128x128.png" vertex="1" parent="1">
          <mxGeometry x="440" y="210" width="80" height="80" as="geometry" />
        </mxCell>
        <mxCell id="TGyVZRft1nJL-iwEU8iF-3" value="mysql&lt;div&gt;&lt;br&gt;&lt;/div&gt;" style="image;html=1;image=img/lib/clip_art/computers/Database_Move_Stack_128x128.png" vertex="1" parent="1">
          <mxGeometry x="860" y="220" width="30" height="50" as="geometry" />
        </mxCell>
        <mxCell id="TGyVZRft1nJL-iwEU8iF-4" value="mysql&lt;div&gt;&lt;br&gt;&lt;/div&gt;" style="image;html=1;image=img/lib/clip_art/computers/Database_Move_Stack_128x128.png" vertex="1" parent="1">
          <mxGeometry x="520" y="140" width="30" height="50" as="geometry" />
        </mxCell>
        <mxCell id="TGyVZRft1nJL-iwEU8iF-7" value="Messageria&lt;br&gt;FILA" style="text;html=1;align=center;verticalAlign=middle;resizable=0;points=[];autosize=1;strokeColor=none;fillColor=none;" vertex="1" parent="1">
          <mxGeometry x="630" y="405" width="90" height="40" as="geometry" />
        </mxCell>
        <mxCell id="TGyVZRft1nJL-iwEU8iF-8" value="" style="shape=image;verticalLabelPosition=bottom;labelBackgroundColor=default;verticalAlign=top;aspect=fixed;imageAspect=0;image=https://www.ovhcloud.com/sites/default/files/styles/large_screens_1x/public/2021-09/ECX-1909_Hero_MySQL_600x400%402x-1_0.png;" vertex="1" parent="1">
          <mxGeometry x="310" y="670" width="290" height="124.28" as="geometry" />
        </mxCell>
        <mxCell id="TGyVZRft1nJL-iwEU8iF-9" value="" style="shape=image;verticalLabelPosition=bottom;labelBackgroundColor=default;verticalAlign=top;aspect=fixed;imageAspect=0;image=data:image/png,iVBORw0KGgoAAAANSUhEUgAAAYUAAACBCAMAAAAYG1bYAAABOFBMVEX///9ELSKOcU4bhjQeijYgjTiHZz9CKx8jkToahDNAKByEYzjj3dYciTZAJxshoDw6pkSJakMzEgArAAA9IxVBqUk0FQAuo0Dr5uE6HxAZnTk2GAAwCwAxDwCbko5KNClJrU/JxMJhUUqknJlWs1n29fUuBwDLwLOTeFjTz822sK7Et6pdtl/b08qOhIDg3dx2aWNdS0N7bmlrXFXf2NC3ppQAmC2Rh4O4srBRPTQAkxukjnQAhSObgmXW6tpEqlyyoIwiAACrqYWVzZjj7+Zsv2+Au4rK5ssAjyk4nkez2rOQwZimzawAiBtIn1iAwYRmqnJZsmi73cBUoGKcxqRntXUwjkTF3MkSAAAmoUV5vocAexR5roNLiUdpjVd7kGFXnlGPlWxnnVl9WSebp360sI/AxarV07wBMtE6AAAQ0UlEQVR4nO2c+WPbRBbHpdBaqWyU6IgjVZId25EdO/WZwzZpShoKpYXuLoWy0C6wsFv4//+D1RyS55Kl0E2Mk/n+lIw18uh95r03l6woUlJSUlJSUlJSUlJSUlJSUlJS/yc9WXUDpGJ99mzVLZBSlM+/WHULpJTnj76UzrBqPdv/fFM6w4r1ZP/R5y9eyQS9Uj3fexRT2Hyx6nbcab2MIQAKX75ddUvusF7uPEIUNr+UqWFVermzDyg8iilsfvnVqltzR/V6e39/P6Gw+UpiWIWe7GIIiMLmq69X3aI7qGfbe/ukL8QYXq+6TXdPj/Yghf0FhU05bbhpfba9x/pCrGjVzbpber67x/vC5ubfVt2uu6Xtnb0Fhv2UwmM5ULpB/X17bw9jeERSkKnhBvXkdEfsC7FW3ba7o71tRAFj+JSA8FguZdyQXm7tYAooJO3f35Qx6ca1tb1D+QJFQY6TbkYvt7YpDAyFx3IKfROKIWyTIWmfpiAT9E3o5ek27Qv7xBjpfqzHclnv+rWzu81iSOwPJJ3hJvT8lKIAMaTml5nhhvRma3eX9YX7RDyCWnUjb7ui091dLiTdX9gf6vE/V93MW66XBIUEw959Vv9YdTNvub6JAxIbkngKr+RGw3UqOk0okBg4CnKweq16TVHAGHhfuC+XMa5Tb0+3+JAkoPBKHuO+Rm1tbfEhSUBBhqRr1LNPMIVdIiSJKNz/dtVNvcWK08IWF5L2RBQey1HStemLU0FI2t+7J6AgJ27Xpm8ebglCkpCCPI1xbTp9+FAUkmgK96C+X3Vbr1+uGwGBP+EfLlClUnGj7HAcuUkVXAnrCl/77BOKwjbrC/cI3f7EcFgulcol09zY2DBNs1SO/021cX7SERkgApfBKrASqAUFKvQLfu8TggIZku4J9Pi2nwKIyhvLZJrlcx7EYSm7Qsk8KdRzX8cRSRSShBRue3ruH5ilkklaEco0TaKItevJBlXJRDUW/3YKfPHXDIXtZb7w3bU8+19K0fHhwqAdkA9ct985OS+Xltg1Oj5JPj7vHx8fxxUOygmI8kn+t35BUtjNoXBHBknnCQSysH+W2rV0xtfp4MSQZgL3JAlv5XxveAsoMCFpJ4PCvTuyx3CMOnaJya3RRWJX84CP9ohC6Zi4/iChlpsb3rAUtpdQuCNrGDhJm9wIp7KRuMMBV2mDo6BECbTDvG/8lKKwcAYhhTuyuJ1JQVHOMAbznP0EdfxShSyrlLKYMUIU+JD0sYjCHZi2QZX5fp0oxcDmXBGFJMPkhqQfH7IUtrMofHzXKFREnyUYysynQgo4Z5fcnC9kfCEdJVHmx5IUgJIRKxNmhBRwSMq400KYAhuSdmj7Y0kKsSp4pMQMoQ5Evd4tFfOFNzwFiOFjke5Idl5OQbkwRc4gpBCViuWFtwyF3SUU7spINYcC7uDM50IKOCIJZnm0vsIUWGcQUvjXBzzZB2rRm1z32pd2l1NQzkTDJCEFlJ3Z6R+v11egkLWC4fbq2DDD2lhTxzWyKd0pKJoOl7Rh2JuM60Z9POllxM9o1hyjvxoTJ2gH+iDrdu5sMFfV+VGtQRZy1zTrujoftbLukkOhL5oGbIgonInnFpzAyrYoJAkpCE5hRN3aOPBtSKExbnu6puleu5Z83KuHqMg+yrJwq972nPgaTXf8drPBfd6tNS3fmYO/Z/XQ0VRV1Rx7ILrXrNn2PSO+leFZ3qCLCt2jFnsN/Lr4omDeE7Yph0JkCqYBIgoodpn5vvssocA4A23/j6DYle1ubzq2LM9Q1QD8Nw7jv5CqI3hBo17VkiLHF/W8aGp5sfWt2M7wSqN9RLR52BqMw/gCVdWb8TM1w/Ruqn/E3WtWrxq+peuWr0NSoXM0GUyaoUVQ6BlVI77IqoKbxret1kWtyqGQTsbISCOgABeSTDNvgAR0upzCR4Te0efCej/4DrK75ijKwNZ1x3Ownfy4r0ajtq5qemI53eP7RMP3VCMcNIbdxtTzES0vtYv7NHYSVNkYKb0ghQzkTZh7HYWa5vciEL/mHmqW4ThxC6uz9IbzqqYFR7PusNGaW7Bhui1whzwKJ3gBlVws5SlUAITSWaEs9oZNDCgkUebHukfXjKaOhY2kd+d+HE4GtYGOe3+70Y0Z+YE6rgc+KnJG7He3bE31mkkzW214ndZOMERHtocZ6qNpW/OsMBa+m2rTwavuxZ0hscGgusClW8kl3ZijbuBApTQ0B92Hx5BHIVnGJtNzkrE7/X7/uA+2JEA4Oi+45/m1yBl2dkQQ+IFqY4wft1rVe8iaDdx9/arRbs5AWTQz8PMy3t+yYzREZBnqsLdrC6eJWpqPbel4fq0bgaEAtp4+Ju/VjAuDbvrvBF3jtcO2k5R2Y+aaQXTNI+QydldhlEcBD0DNC6IMz6hNuPWcbs+ddYrEo8zEIKAg3GrrISsFi9gb4f7rzBdP14RGceiU2rBBLCMd1kVVKadpYQxBmvGVkcdB7Vlx1Gou/o8sCKEVDdOLIpBVAsriTUTdYB8qj0IyYyDnARtimeVz0aIgp4fCkCSg8E647VwHhrPIh2tYOJIT0jScPhaKQGjx6HDQaKNwRt4OdetFcFcS6/lEXY2919Rh23BksI1KOoxXU2h9AAXoAiY4yJGCKBdJDV8I87PIF4TV5xrXm+YgJjlTsmgGe3RIuucA9GiLaSAyuUEOgGrgOk0lrxqG0GUW+bkbsl2hC7qCVl8UNALAkhkI92BA1XzmmQpSEESkpE5U6VykRwBMM281j5gx5FEQ73dCCnWqqOVxvqAEKmMEGDP0pkJraKPwQ+CCFJgLxzpdBq8JybSDQhJhXug/LHTkybSjKcUp8NmZGql20q253OW8dIuBDkkPeFcQn4MRUOgKDAzigeoTTwsTChcL0HVUsIEWNui7wXij6en/I4OloMAxs5f+O2xzCR0IdhjVYEa9RSmQO5lCc1+kJzeybpXqO1FI4im8E9cWUHADnsLAgdlyUQAN53GjRJTtiWAjpICMt+jpkB0VkRQVtGu+uK/APxUMJx6V0aV5FPDxADNn1qYsjoxxW3OcIlFI4ilkLOWB4MBQiKo8hanHUABWUn1uwQISJM0npABtqtrp/5ynKQqYLRJ9HCYch1/3QJPKkI5UBecLlMkzQk+6NZd1r1RvBaMkjsK7jOORIgo+T6HGUIigtXkKCpqAWExNhkLDpynwNoZtIL4PZhIBBTQcoINZ4bkzWZZBIUqWwXOnb4Ipw48chax9NhEFQT5tMRSGWRSacNJXXRQUoQDvTo3U4DDKXtgEpmEBBRTb6GCWS+GMH6hmUUj2hPJDEu8MPAXxZEERUoCZMY8CHGz6zOBESacHi4IiFLqhKKeT83JEgV17SvLQFSkIlpEyKfQFcwuxUmdIQ9ILisKDB5mu8GEUvJbCCqbx3IhUpSmgLENOxOMmaOR4F1Iw+IXYxp+gcCzax8yiEBWmoHzGOsPmg8T+SJmuIBojFaHgwsGJIERACuQsuxCFHpqvjxPDxFNCjVrum2sq304loRDQxsuhgIIMNWfLpoBvVoSCwlOglb3vfxUKRMiA2VMwgEcUSKOLZm0cBbxSZegwxLkTXzVCKuegRY+AW0vAvnCVMRLe5CnTBs+hwDAT6/UnSylkDZAUMYWs7EwG7rloiKjgvEDO5hCFOXURTyFCewqa7zdH47ajWXN62IMCHbuCgZdWNPruORQORa6QHZHKgiSSJeZEzH0KwuMl2/4CCqKRKkcBZWE+PaMJGGGtYhTANhNe8TYMJ1TZ6SBayOIjIIqU1JrXsnOqSubplqxTeHieXS62wk1TuEf7wpJ69T9JAZmFz5eGRs2K8XyvAAVlOIgBelZg1wf8ANi10SSZ9T3oI/R6dw4FNA8rsx+aGf6DZ3j5SxhQzz8hKXxPxaNlb1Kpf5ICmrapAbPzEwFreWSXLUwBrIpUW8OheB0ZTtuoFkCB9V/m5gkF8UQLrUmUuOF/FoWzgpM2rK9IDD+REJa+wgMp0OswouXSKUtBtIitYBehhizwOk1EoU3be9j0BLPA9MZoEduh60AXCZmwiGOOMJR3yuJci1M2Z20XEc0/DJPom8WrDNskhaUn8iIU3ulvFqzm8RTwIrZF904wlvGplVZEgdpfEFKoBYYg2S+kon08euIGko7BLq+LNnGwEITSBfdBJFjsBkKHxQochkn1Y/KO29aLnwkKS++ARpw0BTgjYyk4XC4eoI1LKiiDvRiHHr7CdK1pVBkaX7YJl2nogjRL18HUyYkiaL1WZRPnsfAIJLgcrVSXBe/mJOSY+I+SSIHthYWepc7w4pfFfG35zyKhOTDdK6GNmP03uDzEGKmOtn2Jgf3Q01RDpbGjjRh6pM+t/kQ/oM1ub9xqdIfiM5QTvEVOeNrYiCd33Ob/SbpJRsWk6BC9jr4hGsEeJm+XXBCFlQNU4SoQ8EoGoPDvXwtlZhCLdeTnxHO7KBF6A6KshZdKW6R9Ig+dMGpPcIruVTXVq1MmdLHHUN/QRWS0ei8trOPzMYbnW2Fg+/XmaNrr0jTwmQt/jO3enTuqHrAQosPFlrG5cdKHSKNK5wxuJZvCF2ejTlrHPDisgCqR2zlHnlPsRBKh5JcAfvu1CITeZN7GB5KcoImGhy2izJ6jU4qtkY+eP0ZjjwdED65jE7fH01ZroPmq3iY3YoZHRtvBNZ22io461pq+hU2u+XYdZ/dZW6Wk6YbnWfaIGoKN0OE+PawPWq3pPNA19mxe5WzxojIyKvpFBfxeuVm+4Pv1xdkGVccsoSooGB0UOoJBC2P4+fKnAp7wFCyZIYHDhiDvRXZyOg8+rgWHnI6jpVKNkMy9U3zuS3c8z9GcYE4NcmbEkUgwEoOE5g5lbRv3tEmgCuTQZ75mFjpTpoGv040qt9d3TiGgZJrlg0NBt+5n/2yDWS56KozRk1NA4ZfLXwqEI9u2PaMOFXe7pzVcZlselG/bP8Cn9GxPR5fVHd/+gTK0O/VC3zPi+a5nWRMmOjSeWmEYBG3bDoIgDNER4XkACuOyNigLnyYX90JHxMGmh6Gtue17Dvi6qn3ETdyj/6AfXGAV9+6Di4wDXmflkqhSqWyeCX+9pJCe/Xi6tfXr5WUM4aOc3yuMBP/RP0gj/A0VtmDYm05Go0mLy5JKFGfaIfyxHNd1h8MuNEO3iwtRGVErngc7PpDnGakTaey5C3dWg1/XEDQu6sfqJDrE6nSOl+TXSh+q04c1TqAOO/3KB75l8enpi8vLy/+++3bNfohnZhjWZNZoNHqt2mge+Phwsc/vYayF3v4WU3j/+6qbcUVNQm9MdNlo1gxRcuJXz9dDl3FEer9enjCse9xZ+kaIkvpKGvTh+iOm8MeqG3ElNQJdtJ2JtqNX0J7/h9xfL9/nH638C2lma+yuJRRY/eCPZK+L4oB0tVn3agUWBgWugE6PCT9YC71/v1YURo7wIAFaJ+e2FNZGv79fq+QM5uuCs0botBG/478u+uP972vUdri6LjjlAvcmPOE7uWuh9aKA3yfi99mitmCneX1UWS8K6CSZwTU5zhd29h7oX16V3/9YJwpo89Rg3yAf+Kq9pssXUO56UVAmHto3qJFbQWNPE71Svj5aNwp481T12qNed+i6w0ZtHhqOzy/TrpfWC4ISzfFr0YZXBXsRvqcZ9mTNHuIWqJb+WgMMTh6z2Sl1M3KnattHu3xVe95ap7n/7dJw1qrFYs9eSElJSUlJSUlJSUlJSUlJSUlJran+B+rrVEKUPXAtAAAAAElFTkSuQmCC;" vertex="1" parent="1">
          <mxGeometry x="800" y="711.71" width="249" height="82.57" as="geometry" />
        </mxCell>
        <mxCell id="TGyVZRft1nJL-iwEU8iF-10" value="No SQL&lt;br&gt;No Relational" style="text;html=1;align=center;verticalAlign=middle;resizable=0;points=[];autosize=1;strokeColor=none;fillColor=none;" vertex="1" parent="1">
          <mxGeometry x="630" y="630" width="100" height="40" as="geometry" />
        </mxCell>
        <mxCell id="TGyVZRft1nJL-iwEU8iF-11" value="NÃ£o Relacional" style="text;html=1;align=center;verticalAlign=middle;resizable=0;points=[];autosize=1;strokeColor=none;fillColor=none;" vertex="1" parent="1">
          <mxGeometry x="870" y="670" width="100" height="30" as="geometry" />
        </mxCell>
        <mxCell id="TGyVZRft1nJL-iwEU8iF-12" value="Relacional" style="text;html=1;align=center;verticalAlign=middle;resizable=0;points=[];autosize=1;strokeColor=none;fillColor=none;" vertex="1" parent="1">
          <mxGeometry x="350" y="674" width="80" height="30" as="geometry" />
        </mxCell>
        <mxCell id="TGyVZRft1nJL-iwEU8iF-15" style="edgeStyle=orthogonalEdgeStyle;rounded=0;orthogonalLoop=1;jettySize=auto;html=1;exitX=1;exitY=0.5;exitDx=0;exitDy=0;entryX=0;entryY=0.5;entryDx=0;entryDy=0;" edge="1" parent="1" source="TGyVZRft1nJL-iwEU8iF-13" target="TGyVZRft1nJL-iwEU8iF-14">
          <mxGeometry relative="1" as="geometry" />
        </mxCell>
        <mxCell id="TGyVZRft1nJL-iwEU8iF-13" value="Users" style="shape=internalStorage;whiteSpace=wrap;html=1;backgroundOutline=1;" vertex="1" parent="1">
          <mxGeometry x="260" y="847" width="80" height="80" as="geometry" />
        </mxCell>
        <mxCell id="TGyVZRft1nJL-iwEU8iF-14" value="Tipos" style="shape=internalStorage;whiteSpace=wrap;html=1;backgroundOutline=1;" vertex="1" parent="1">
          <mxGeometry x="405" y="847" width="80" height="80" as="geometry" />
        </mxCell>
        <mxCell id="TGyVZRft1nJL-iwEU8iF-16" value="Join" style="text;html=1;align=center;verticalAlign=middle;resizable=0;points=[];autosize=1;strokeColor=none;fillColor=none;" vertex="1" parent="1">
          <mxGeometry x="340" y="855" width="50" height="30" as="geometry" />
        </mxCell>
        <mxCell id="TGyVZRft1nJL-iwEU8iF-17" value="Economia de dados&lt;br&gt;NÃ£o repete informaÃ§Ãµes&lt;br&gt;&lt;br&gt;A quantidade em GB ou TB&lt;br&gt;Ã© importante neste cenÃ¡rio&lt;br&gt;&lt;br&gt;NormalizaÃ§Ã£o de dados" style="text;html=1;align=center;verticalAlign=middle;resizable=0;points=[];autosize=1;strokeColor=none;fillColor=none;" vertex="1" parent="1">
          <mxGeometry x="360" y="938" width="170" height="110" as="geometry" />
        </mxCell>
        <mxCell id="TGyVZRft1nJL-iwEU8iF-19" style="edgeStyle=orthogonalEdgeStyle;rounded=0;orthogonalLoop=1;jettySize=auto;html=1;exitX=0;exitY=0.5;exitDx=0;exitDy=0;entryX=1;entryY=0.5;entryDx=0;entryDy=0;" edge="1" parent="1" source="TGyVZRft1nJL-iwEU8iF-18" target="TGyVZRft1nJL-iwEU8iF-14">
          <mxGeometry relative="1" as="geometry" />
        </mxCell>
        <mxCell id="TGyVZRft1nJL-iwEU8iF-18" value="Atores" style="shape=internalStorage;whiteSpace=wrap;html=1;backgroundOutline=1;" vertex="1" parent="1">
          <mxGeometry x="550" y="830" width="80" height="80" as="geometry" />
        </mxCell>
        <mxCell id="TGyVZRft1nJL-iwEU8iF-20" value="Join" style="text;html=1;align=center;verticalAlign=middle;resizable=0;points=[];autosize=1;strokeColor=none;fillColor=none;" vertex="1" parent="1">
          <mxGeometry x="495" y="830" width="50" height="30" as="geometry" />
        </mxCell>
        <mxCell id="TGyVZRft1nJL-iwEU8iF-22" value="Join HTTP / FIla" style="text;html=1;align=center;verticalAlign=middle;resizable=0;points=[];autosize=1;strokeColor=none;fillColor=none;" vertex="1" parent="1">
          <mxGeometry x="590" y="190" width="110" height="30" as="geometry" />
        </mxCell>
        <mxCell id="TGyVZRft1nJL-iwEU8iF-25" style="edgeStyle=orthogonalEdgeStyle;rounded=0;orthogonalLoop=1;jettySize=auto;html=1;exitX=1;exitY=0.75;exitDx=0;exitDy=0;" edge="1" parent="1" source="TGyVZRft1nJL-iwEU8iF-23" target="TGyVZRft1nJL-iwEU8iF-1">
          <mxGeometry relative="1" as="geometry" />
        </mxCell>
        <mxCell id="TGyVZRft1nJL-iwEU8iF-27" value="GET HTTP&lt;div&gt;Timeout&lt;br&gt;60 s&lt;/div&gt;" style="edgeLabel;html=1;align=center;verticalAlign=middle;resizable=0;points=[];" vertex="1" connectable="0" parent="TGyVZRft1nJL-iwEU8iF-25">
          <mxGeometry x="-0.436" y="1" relative="1" as="geometry">
            <mxPoint as="offset" />
          </mxGeometry>
        </mxCell>
        <mxCell id="TGyVZRft1nJL-iwEU8iF-26" style="edgeStyle=orthogonalEdgeStyle;rounded=0;orthogonalLoop=1;jettySize=auto;html=1;exitX=0;exitY=0.5;exitDx=0;exitDy=0;entryX=0.25;entryY=0;entryDx=0;entryDy=0;" edge="1" parent="1" source="TGyVZRft1nJL-iwEU8iF-23" target="TGyVZRft1nJL-iwEU8iF-2">
          <mxGeometry relative="1" as="geometry" />
        </mxCell>
        <mxCell id="TGyVZRft1nJL-iwEU8iF-28" value="GET HTTP" style="edgeLabel;html=1;align=center;verticalAlign=middle;resizable=0;points=[];" vertex="1" connectable="0" parent="TGyVZRft1nJL-iwEU8iF-26">
          <mxGeometry x="-0.4211" y="-3" relative="1" as="geometry">
            <mxPoint as="offset" />
          </mxGeometry>
        </mxCell>
        <mxCell id="TGyVZRft1nJL-iwEU8iF-23" value="Next" style="image;html=1;image=img/lib/clip_art/computers/Server_Tower_128x128.png" vertex="1" parent="1">
          <mxGeometry x="590" y="20" width="80" height="80" as="geometry" />
        </mxCell>
        <mxCell id="TGyVZRft1nJL-iwEU8iF-24" value="Lista de usuarios com produtos" style="text;html=1;align=center;verticalAlign=middle;resizable=0;points=[];autosize=1;strokeColor=none;fillColor=none;" vertex="1" parent="1">
          <mxGeometry x="660" y="10" width="190" height="30" as="geometry" />
        </mxCell>
        <mxCell id="TGyVZRft1nJL-iwEU8iF-31" value="Users" style="shape=internalStorage;whiteSpace=wrap;html=1;backgroundOutline=1;" vertex="1" parent="1">
          <mxGeometry x="780" y="830" width="80" height="80" as="geometry" />
        </mxCell>
        <mxCell id="TGyVZRft1nJL-iwEU8iF-32" value="Tipos" style="shape=internalStorage;whiteSpace=wrap;html=1;backgroundOutline=1;" vertex="1" parent="1">
          <mxGeometry x="835" y="885" width="80" height="80" as="geometry" />
        </mxCell>
        <mxCell id="TGyVZRft1nJL-iwEU8iF-34" value="Agilidade em retornar informaÃ§Ãµes&lt;br&gt;A quantidade em GB ou TB&lt;br&gt;Ã© nÃ£o Ã© tÃ£o importante neste cenÃ¡rio&lt;br&gt;Buscando performance vc duplica a informaÃ§Ã£o" style="text;html=1;align=center;verticalAlign=middle;resizable=0;points=[];autosize=1;strokeColor=none;fillColor=none;" vertex="1" parent="1">
          <mxGeometry x="805" y="975" width="280" height="70" as="geometry" />
        </mxCell>
        <mxCell id="TGyVZRft1nJL-iwEU8iF-36" value="Atores" style="shape=internalStorage;whiteSpace=wrap;html=1;backgroundOutline=1;" vertex="1" parent="1">
          <mxGeometry x="1050" y="820" width="80" height="80" as="geometry" />
        </mxCell>
        <mxCell id="TGyVZRft1nJL-iwEU8iF-38" value="Tipos" style="shape=internalStorage;whiteSpace=wrap;html=1;backgroundOutline=1;" vertex="1" parent="1">
          <mxGeometry x="1000" y="880" width="80" height="80" as="geometry" />
        </mxCell>
        <mxCell id="TGyVZRft1nJL-iwEU8iF-40" value="Sistemas eletricos, para proteger circuitos com sobrecarga" style="shape=image;verticalLabelPosition=bottom;labelBackgroundColor=default;verticalAlign=top;aspect=fixed;imageAspect=0;image=https://www.electrical4u.com/wp-content/uploads/What-is-a-Circuit-Breaker.png;" vertex="1" parent="1">
          <mxGeometry x="277.75" y="-320" width="360" height="192.86" as="geometry" />
        </mxCell>
        <mxCell id="TGyVZRft1nJL-iwEU8iF-41" value="Disjuntor" style="shape=image;verticalLabelPosition=bottom;labelBackgroundColor=default;verticalAlign=top;aspect=fixed;imageAspect=0;image=https://meijielectric.ph/wp-content/uploads/2021/06/JVM16-3P-63A-02.jpg;" vertex="1" parent="1">
          <mxGeometry x="673.25" y="-270" width="119" height="119" as="geometry" />
        </mxCell>
        <mxCell id="TGyVZRft1nJL-iwEU8iF-43" value="" style="shape=image;verticalLabelPosition=bottom;labelBackgroundColor=default;verticalAlign=top;aspect=fixed;imageAspect=0;image=https://miro.medium.com/v2/resize:fit:1200/0*100ZoqoM6WcCaw9c.png;" vertex="1" parent="1">
          <mxGeometry x="880" y="-243.92000000000004" width="200" height="66.83" as="geometry" />
        </mxCell>
        <mxCell id="TGyVZRft1nJL-iwEU8iF-48" style="edgeStyle=orthogonalEdgeStyle;rounded=0;orthogonalLoop=1;jettySize=auto;html=1;exitX=1;exitY=0.5;exitDx=0;exitDy=0;entryX=0.5;entryY=0;entryDx=0;entryDy=0;" edge="1" parent="1" source="TGyVZRft1nJL-iwEU8iF-45" target="TGyVZRft1nJL-iwEU8iF-46">
          <mxGeometry relative="1" as="geometry" />
        </mxCell>
        <mxCell id="TGyVZRft1nJL-iwEU8iF-45" value="Producer" style="image;html=1;image=img/lib/clip_art/computers/Software_128x128.png" vertex="1" parent="1">
          <mxGeometry x="540" y="300" width="40" height="25" as="geometry" />
        </mxCell>
        <mxCell id="TGyVZRft1nJL-iwEU8iF-46" value="" style="image;html=1;image=img/lib/clip_art/computers/Server_Rack_Partial_128x128.png" vertex="1" parent="1">
          <mxGeometry x="650" y="359" width="50" height="46" as="geometry" />
        </mxCell>
        <mxCell id="TGyVZRft1nJL-iwEU8iF-51" style="edgeStyle=orthogonalEdgeStyle;rounded=0;orthogonalLoop=1;jettySize=auto;html=1;exitX=0.5;exitY=0;exitDx=0;exitDy=0;" edge="1" parent="1" source="TGyVZRft1nJL-iwEU8iF-50" target="TGyVZRft1nJL-iwEU8iF-46">
          <mxGeometry relative="1" as="geometry" />
        </mxCell>
        <mxCell id="TGyVZRft1nJL-iwEU8iF-52" style="edgeStyle=orthogonalEdgeStyle;rounded=0;orthogonalLoop=1;jettySize=auto;html=1;exitX=0.75;exitY=0;exitDx=0;exitDy=0;entryX=1;entryY=0.75;entryDx=0;entryDy=0;" edge="1" parent="1" source="TGyVZRft1nJL-iwEU8iF-50" target="TGyVZRft1nJL-iwEU8iF-1">
          <mxGeometry relative="1" as="geometry" />
        </mxCell>
        <mxCell id="TGyVZRft1nJL-iwEU8iF-53" style="edgeStyle=orthogonalEdgeStyle;rounded=0;orthogonalLoop=1;jettySize=auto;html=1;exitX=1;exitY=0.75;exitDx=0;exitDy=0;entryX=0;entryY=0.5;entryDx=0;entryDy=0;" edge="1" parent="1" source="TGyVZRft1nJL-iwEU8iF-50" target="TGyVZRft1nJL-iwEU8iF-2">
          <mxGeometry relative="1" as="geometry">
            <Array as="points">
              <mxPoint x="880" y="415" />
              <mxPoint x="880" y="490" />
              <mxPoint x="420" y="490" />
              <mxPoint x="420" y="250" />
            </Array>
          </mxGeometry>
        </mxCell>
        <mxCell id="TGyVZRft1nJL-iwEU8iF-50" value="Consomer&lt;br&gt;ResponsÃ¡vel pela criaÃ§Ã£o" style="image;html=1;image=img/lib/clip_art/computers/Software_128x128.png" vertex="1" parent="1">
          <mxGeometry x="755" y="370" width="55" height="60" as="geometry" />
        </mxCell>
      </root>
    </mxGraphModel>
  </diagram>
</mxfile>
